Coordinates
version=1
nRows=11
nColumns=36
inDegrees=yes

Units are S.I. units (second, meters, Newtons, ...)
If the header above contains a line with 'inDegrees', this indicates whether rotational values are in degrees (yes) or radians (no).

endheader
time	pelvis_tilt	pelvis_list	pelvis_rotation	pelvis_tx	pelvis_ty	pelvis_tz	hip_flexion_r	hip_adduction_r	hip_rotation_r	knee_angle_r	knee_angle_r_beta	ankle_angle_r	subtalar_angle_r	mtp_angle_r	hip_flexion_l	hip_adduction_l	hip_rotation_l	knee_angle_l	knee_angle_l_beta	ankle_angle_l	subtalar_angle_l	mtp_angle_l	lumbar_extension	lumbar_bending	lumbar_rotation	arm_flex_r	arm_add_r	arm_rot_r	elbow_flex_r	pro_sup_r	arm_flex_l	arm_add_l	arm_rot_l	elbow_flex_l	pro_sup_l
      3.30000000	      3.88059447	     -1.00255045	    -11.53087357	      0.56906877	      0.80055486	     -0.10216856	     54.33558679	     -8.12133991	     -3.40404440	     26.70608678	      0.46610914	    -20.71130758	     13.09356773	     -7.49999987	     30.50166927	     11.92205003	      0.99545296	     70.49918745	      1.23044294	     13.90644645	    -18.72727422	     -7.49999987	    -20.73597245	     -0.65850436	      0.23716007	     41.21396430	     -1.57434251	     66.06177797	    122.46212122	     84.40248019	     34.24111289	     -8.63383925	     64.99958433	    132.32121293	     90.89588682
      3.31666670	      3.42885878	     -1.17229216	    -11.86640861	      0.56840729	      0.79991259	     -0.10201022	     54.47864794	     -7.78344381	     -3.59474760	     26.13297285	      0.45610642	    -21.10604425	     13.65523599	     -7.49999987	     31.34798424	     11.55475910	      0.72077677	     71.20896072	      1.24283082	     13.85759479	    -18.66664507	     -7.49999987	    -20.54037211	     -0.53451573	      0.40942208	     41.05471051	     -1.72353644	     66.28668068	    122.41929927	     84.29156393	     33.92993041	     -8.87842180	     65.71855459	    132.38072918	     90.69765921
      3.33333330	      2.89991467	     -1.42680749	    -12.27097880	      0.57462760	      0.79510262	     -0.09767602	     54.60421484	     -7.33862534	     -3.87370299	     25.65338694	      0.44773607	    -20.65535443	     14.13675080	     -7.49999987	     31.91439660	     10.90249146	      0.50302072	     72.07316401	      1.25791401	     14.79212004	    -17.96936417	     -7.49999987	    -19.99000733	     -0.56263013	      0.46096172	     40.54643303	     -1.51509093	     65.96751407	    122.11363351	     84.63173948	     33.53226295	     -9.05338207	     66.70495150	    132.45690664	     91.01540523
      3.35000000	      2.50257691	     -1.52151462	    -12.43958702	      0.57414233	      0.79480006	     -0.09769093	     54.71654348	     -7.10428694	     -4.10269874	     24.87935737	      0.43422670	    -20.53468322	     14.17682397	     -7.49999987	     32.24916543	     10.48810605	      0.27906680	     72.52360819	      1.26577575	     15.31856768	    -17.63500551	     -7.49999987	    -19.53813910	     -0.69598871	      0.40846699	     39.97601298	     -1.52685421	     65.89250094	    121.91280262	     84.32409276	     33.06200864	     -9.17585795	     67.58843206	    132.84396516	     90.55030828
      3.36666670	      2.45766206	     -1.29446275	    -12.16701304	      0.56913445	      0.79386294	     -0.10166499	     54.57415748	     -7.56810593	     -4.14922930	     23.98735387	      0.41865830	    -20.64824290	     14.39623664	     -7.49999987	     32.51893393	     10.81690353	      0.22131113	     72.71575475	      1.26912934	     15.03680348	    -17.58426918	     -7.49999987	    -19.56804175	     -0.86426822	      0.09087031	     40.15229860	     -1.62765593	     65.79654840	    121.70987197	     84.48036336	     33.17191202	     -9.18981682	     68.12118827	    133.17033889	     90.68470517
      3.38333330	      2.67650517	     -1.30998630	    -11.84872385	      0.56891648	      0.79350419	     -0.10170989	     53.77728272	     -7.85792430	     -4.58908209	     22.76960229	      0.39740453	    -21.06801065	     15.33640131	     -7.49999987	     32.33143911	     11.07072391	      0.32567940	     72.75400487	      1.26979693	     14.46531528	    -17.93759783	     -7.49999987	    -20.31719498	     -0.80589486	     -0.19301439	     41.03589698	     -1.40411471	     66.17959857	    121.75837090	     85.05980738	     33.70789762	     -9.39240746	     69.62360739	    133.88719350	     91.07876731
      3.40000000	      2.86166072	     -1.23477144	    -11.74227969	      0.56986457	      0.79358453	     -0.10145480	     53.37389288	     -8.08584412	     -4.81511250	     22.35361737	      0.39014422	    -21.51751809	     15.83192372	     -7.49999987	     32.24287718	     11.26726730	      0.17020002	     72.95712029	      1.27334196	     14.41419288	    -17.79872867	     -7.49999987	    -20.84459778	     -0.94992338	     -0.23448338	     41.41842187	     -1.30128623	     65.84099634	    121.97033928	     88.01886931	     34.00919849	     -9.29695018	     69.93765998	    134.31779979	     93.48043196
      3.41666670	      2.79819801	     -1.44589031	    -11.89246631	      0.57491398	      0.79164290	     -0.09762268	     53.12232804	     -7.76725896	     -4.86613576	     22.14234510	      0.38645683	    -21.47438842	     15.73776308	     -7.49999987	     32.05207812	     10.88674220	      0.13304470	     73.14004731	      1.27653464	     15.52663698	    -17.04110883	     -7.49999987	    -20.67385424	     -1.01829433	     -0.18929101	     41.16531192	     -1.07435482	     65.90020787	    122.33432328	     88.07844029	     33.74168938	     -9.13874213	     69.98138764	    134.33596539	     93.45927216
      3.43333330	      2.76713505	     -1.54536583	    -12.18608253	      0.58196275	      0.79314226	     -0.09924534	     52.74454120	     -7.60849167	     -5.00512473	     21.74521941	      0.37952568	    -21.41804858	     15.53001021	     -7.49999987	     31.57446816	     10.80446191	      0.07203226	     73.13362514	      1.27642255	     16.09311117	    -17.02484771	     -7.49999987	    -20.33922949	     -1.09667205	     -0.11181560	     40.13998712	     -1.25520619	     66.25418188	    122.45847495	     88.11381731	     32.76284486	     -9.18435615	     70.06663152	    134.02915602	     93.46839692
      3.45000000	      2.57066286	     -1.99515966	    -12.33708487	      0.58096742	      0.79315122	     -0.09888820	     52.38650056	     -7.10116359	     -5.04566979	     21.20386996	      0.37007734	    -21.54300545	     14.74573994	     -7.49999987	     31.47536223	     10.22613144	      0.17645437	     73.30606145	      1.27943213	     16.94223111	    -16.42679778	     -7.49999987	    -19.56942717	     -0.78102597	      0.29062980	     39.17569984	     -1.42043536	     66.03641160	    122.54992960	     87.61108755	     32.11647724	     -8.58430891	     69.09041749	    133.22595008	     92.77748992
      3.46666670	      2.74344993	     -2.01038815	    -12.04150720	      0.57352366	      0.79250935	     -0.09760051	     52.44026902	     -7.16071217	     -4.86434956	     21.31981452	      0.37210096	    -21.82227770	     14.23023989	     -7.49999987	     31.78024216	     10.14874926	      0.30626502	     73.32482623	      1.27975964	     16.17501051	    -16.96828766	     -7.49999987	    -19.57831754	     -0.99234322	      0.15989470	     38.83980208	     -1.34999281	     65.60493213	    122.41125914	     87.71065000	     32.35839007	     -8.65723930	     69.04788783	    133.45336559	     92.85079493
